<svg width="12" height="14" viewBox="0 0 12 14" fill="none" xmlns="http://www.w3.org/2000/svg">
<path fill-rule="evenodd" clip-rule="evenodd" d="M10.2 1.2H10.8C11.46 1.2 12 1.74 12 2.4V12C12 12.66 11.46 13.2 10.8 13.2H1.2C0.54 13.2 0 12.66 0 12V2.4C0 1.74 0.54 1.2 1.2 1.2H1.8V0H3V1.2H9V0H10.2V1.2ZM1.2 12H10.8V4.2H1.2V12ZM3 6H4.2V7.2H3V6ZM3 8.39999H4.2V9.59999H3V8.39999ZM6.60003 6H5.40003V7.2H6.60003V6ZM5.40003 8.39999H6.60003V9.59999H5.40003V8.39999ZM9.00001 6H7.80001V7.2H9.00001V6ZM7.80001 8.39999H9.00001V9.59999H7.80001V8.39999Z" fill="#BABABA"/>
</svg>
