<svg width="37" height="20" viewBox="0 0 37 20" fill="none" xmlns="http://www.w3.org/2000/svg">
<path fill-rule="evenodd" clip-rule="evenodd" d="M27.6967 0H23.8048C23.2019 0 22.7291 0 22.4002 0.102778C22.0782 0.219259 21.9206 0.370001 21.8041 0.698889C21.7013 1.02093 21.7013 1.50056 21.7013 2.10352V5.99537C21.7013 6.59833 21.7013 7.07111 21.8041 7.4C21.9206 7.72203 22.0782 7.87963 22.4002 7.99611C22.7222 8.09889 23.2019 8.09889 23.8048 8.09889H27.6967C28.2996 8.09889 28.7724 8.09889 29.1013 7.99611C29.4165 7.88648 29.5809 7.71518 29.6974 7.4C29.8002 7.07796 29.8002 6.59833 29.8002 5.99537V2.10352C29.8002 1.50056 29.8002 1.02778 29.6974 0.698889C29.5741 0.370001 29.437 0.226111 29.1013 0.102778C28.7793 0 28.2996 0 27.6967 0ZM26.962 19.4613H27.3731C27.9257 19.4613 28.1182 19.1532 28.1443 18.6901C28.151 18.6004 28.1502 18.5056 28.1494 18.4082V18.4082V18.4082V18.4081V18.4081V18.4081V18.4081V18.408V18.408V18.408V18.408C28.1491 18.3751 28.1488 18.3419 28.1488 18.3084V16.1035C28.1488 16.065 28.1171 16.0333 28.0786 16.0333H27.7015C27.663 16.0333 27.6313 16.065 27.6313 16.1035V16.8668C27.6313 16.9053 27.5996 16.937 27.5611 16.937H26.7095C26.2248 16.937 25.9337 17.2281 25.9337 17.7082V18.3039V18.681C25.9337 19.4228 26.4909 19.4613 26.962 19.4613ZM27.6301 17.4568V18.3096C27.6301 18.36 27.6313 18.4124 27.6325 18.4653C27.6334 18.5016 27.6342 18.5382 27.6347 18.5746C27.6381 18.8101 27.6177 18.9392 27.3731 18.9392H26.962C26.9362 18.9392 26.9103 18.9397 26.8846 18.9402H26.8846H26.8845H26.8845H26.8845H26.8845H26.8845C26.8333 18.9412 26.7826 18.9422 26.7344 18.9392C26.5328 18.9301 26.4513 18.8916 26.4513 18.6821V17.7094C26.4513 17.5168 26.5113 17.4568 26.7083 17.4568H27.6301ZM19.4535 16.5709C19.5089 16.5717 19.5759 16.5728 19.6819 16.5712C19.7204 16.5712 19.7521 16.5395 19.7521 16.501V16.1228C19.7521 16.0843 19.7204 16.0537 19.6819 16.0537L19.6145 16.054C19.0911 16.0559 18.4679 16.0582 18.4679 16.7898V16.9144V18.2711V18.7897V19.3922C18.4679 19.4307 18.4996 19.4624 18.5381 19.4624H18.9152C18.9537 19.4624 18.9854 19.4307 18.9854 19.3922V17.7184H19.4282C19.4667 17.7184 19.4984 17.6867 19.4984 17.6482V17.27C19.4984 17.2315 19.4667 17.1997 19.4282 17.1997H18.9854V16.9132V16.7887C18.9854 16.5688 19.1886 16.5695 19.3517 16.57L19.3761 16.5701C19.4013 16.5701 19.4259 16.5705 19.4535 16.5709ZM10.1573 19.4647L10.0899 19.4644C9.56645 19.4625 8.94327 19.4602 8.94327 18.7286V18.604V17.4602V16.9416V16.3391C8.94327 16.3006 8.97498 16.2689 9.01349 16.2689H9.39059C9.4291 16.2689 9.4608 16.3006 9.4608 16.3391V16.9416H10.1573C10.1958 16.9416 10.2275 16.9733 10.2275 17.0118V17.39C10.2275 17.4285 10.1958 17.4602 10.1573 17.4602H9.4608V18.604V18.7286C9.4608 18.9485 9.66399 18.9478 9.82713 18.9472L9.8515 18.9472C9.87658 18.9472 9.90117 18.9468 9.92857 18.9464L9.9288 18.9464L9.92885 18.9464H9.92887H9.92889H9.92891C9.98435 18.9455 10.0513 18.9445 10.1573 18.946C10.1958 18.9472 10.2275 18.9789 10.2275 19.0174V19.3956C10.2275 19.4341 10.1958 19.4658 10.1573 19.4647ZM11.7848 16.9336H11.7727C11.2146 16.9336 10.6263 16.9336 10.6263 17.7094V18.6855C10.6263 19.4593 11.1668 19.4581 11.7149 19.4568L11.7383 19.4567H11.8538H11.8629H11.9841C11.9875 19.4567 11.9909 19.4556 11.9943 19.4545C12.3476 19.4443 12.5605 19.3899 12.7032 19.2359C12.7292 19.2076 12.7326 19.1691 12.7066 19.1419L12.4269 18.8894C12.3997 18.8622 12.3544 18.8418 12.317 18.8724C12.2184 18.9546 12.074 18.9566 11.9162 18.9588L11.8674 18.9596L11.8149 18.96H11.8149H11.8149C11.7104 18.961 11.658 18.9614 11.5266 18.9585C11.2819 18.9528 11.1449 18.9279 11.1449 18.6844V18.4455H12.4948C12.6885 18.4455 12.8459 18.2949 12.8459 18.108V17.7705C12.8459 16.9755 12.3589 16.9336 11.7848 16.9336ZM12.3272 17.8917C12.3272 17.9302 12.2955 17.9619 12.257 17.9619H11.1449V17.7094C11.1449 17.5248 11.2163 17.484 11.3205 17.4738C11.4625 17.4603 11.5337 17.4596 11.6217 17.4588H11.6217H11.6217C11.6585 17.4585 11.6983 17.4582 11.7474 17.4568L12.0996 17.4614C12.257 17.4682 12.3272 17.5169 12.3272 17.7739V17.8917ZM14.2501 17.4286C14.2752 17.4286 14.2999 17.429 14.3274 17.4294C14.3829 17.4303 14.4499 17.4313 14.5558 17.4298C14.5943 17.4286 14.626 17.3969 14.626 17.3584V16.9802C14.626 16.9417 14.5943 16.91 14.5558 16.9111L14.4884 16.9114C13.965 16.9133 13.3418 16.9156 13.3418 17.6472V17.7706V18.9359V19.3844C13.3418 19.4229 13.3735 19.4546 13.4121 19.4546H13.7892C13.8277 19.4546 13.8594 19.4229 13.8594 19.3844V17.7706V17.6472C13.8594 17.4273 14.0615 17.428 14.2255 17.4286L14.2501 17.4286ZM17.1695 19.5135C17.6497 19.5135 17.9362 19.2269 17.9407 18.7468L17.9452 17.8204C17.9498 17.3369 17.8422 16.8782 17.1695 16.8782H16.4799C15.8366 16.8782 15.7041 17.3018 15.7041 17.7865V18.7468C15.7041 19.2269 15.9997 19.5135 16.4799 19.5135H17.1695ZM16.4799 17.4003H17.1695C17.4187 17.4003 17.4266 17.4784 17.4266 17.817L17.4221 18.7468C17.4221 18.9393 17.3666 18.9948 17.1695 18.9948H16.4799C16.2828 18.9948 16.2228 18.9393 16.2228 18.7468V17.7865C16.2228 17.4694 16.2398 17.4003 16.4799 17.4003ZM25.4708 18.7468C25.4663 19.2269 25.1798 19.5135 24.6996 19.5135H24.0099C23.5298 19.5135 23.2342 19.2269 23.2342 18.7468V17.7865C23.2342 17.3018 23.3667 16.8782 24.0099 16.8782H24.6996C25.3723 16.8782 25.4799 17.3369 25.4753 17.8204L25.4708 18.7468ZM24.6996 17.4003H24.0099C23.7699 17.4003 23.7529 17.4694 23.7529 17.7865V18.7468C23.7529 18.9393 23.8129 18.9948 24.0099 18.9948H24.6996C24.8966 18.9948 24.9521 18.9393 24.9521 18.7468L24.9567 17.817C24.9567 17.4784 24.9487 17.4003 24.6996 17.4003ZM14.8495 18.8974H15.0228C15.0805 18.8974 15.1247 18.8974 15.1564 18.9076C15.1881 18.9189 15.2017 18.9325 15.213 18.9642C15.2232 18.9948 15.2232 19.0401 15.2232 19.0978V19.2711C15.2232 19.3288 15.2232 19.373 15.213 19.4047C15.2017 19.4353 15.1858 19.45 15.1564 19.4613C15.1258 19.4715 15.0805 19.4715 15.0228 19.4715H14.8495C14.7917 19.4715 14.7476 19.4715 14.7159 19.4613C14.6853 19.45 14.6706 19.4353 14.6592 19.4047C14.649 19.3741 14.649 19.3288 14.649 19.2711V19.0978C14.649 19.0401 14.649 18.9959 14.6592 18.9642C14.6706 18.9336 14.6853 18.9189 14.7159 18.9076C14.7476 18.8974 14.7929 18.8974 14.8495 18.8974ZM20.2066 18.8974H20.0333C19.9756 18.8974 19.9303 18.8974 19.8997 18.9076C19.8691 18.9189 19.8544 18.9336 19.8431 18.9642C19.8329 18.9959 19.8329 19.04 19.8329 19.0978V19.0978V19.2711V19.2711C19.8329 19.3288 19.8329 19.3741 19.8431 19.4047C19.8544 19.4353 19.8691 19.45 19.8997 19.4613C19.9314 19.4715 19.9756 19.4715 20.0333 19.4715H20.2066C20.2644 19.4715 20.3097 19.4715 20.3402 19.4613C20.3697 19.45 20.3855 19.4353 20.3969 19.4047C20.4071 19.373 20.4071 19.3288 20.4071 19.2711V19.0978C20.4071 19.0401 20.4071 18.9948 20.3969 18.9642C20.3855 18.9325 20.3719 18.9189 20.3402 18.9076C20.3085 18.8974 20.2644 18.8974 20.2066 18.8974ZM3.24674 19.4614H2.8685C2.83 19.4614 2.79829 19.4297 2.79829 19.3912L2.80282 17.7095C2.80282 17.5169 2.7428 17.4569 2.54576 17.4569H1.90705V19.3912C1.90705 19.4297 1.87534 19.4614 1.83684 19.4614H1.4586C1.4201 19.4614 1.38839 19.4297 1.38839 19.3912V17.4569H0.518664V19.3912C0.518664 19.4297 0.486955 19.4614 0.448452 19.4614H0.0702123C0.0317088 19.4614 0 19.4297 0 19.3912V17.0085C0 16.97 0.0317088 16.9383 0.0702123 16.9383H2.54462C3.02478 16.9383 3.32035 17.2248 3.32035 17.7095C3.32035 18.0158 3.31932 18.2928 3.3182 18.592C3.31729 18.8347 3.31633 19.0919 3.31582 19.3912C3.31696 19.4297 3.28525 19.4614 3.24674 19.4614ZM3.89396 17.0084C3.89396 16.9699 3.92567 16.9382 3.96417 16.9382H3.96482C4.79313 16.9382 4.79879 16.9382 4.80445 16.9359L4.85658 16.9359C5.4053 16.9351 5.9437 16.9344 5.9437 17.7071V18.6845C5.9437 19.4603 5.35703 19.4602 4.79958 19.4602H4.7852C4.21104 19.4602 3.72409 19.4183 3.72409 18.6867C3.72409 17.9642 4.21104 17.9144 4.7852 17.9144H5.03887L5.0766 17.9146C5.23908 17.9161 5.42503 17.9178 5.42503 17.6868C5.42503 17.4648 5.28801 17.4308 5.04453 17.4342H3.96417C3.92567 17.4342 3.89396 17.4025 3.89396 17.364V17.0084ZM5.22459 18.9404C5.32877 18.9313 5.42617 18.8702 5.42617 18.6856V18.3526C5.42617 18.3526 5.3016 18.4297 5.08643 18.4297H4.50095C4.28692 18.4251 4.24389 18.5044 4.24389 18.6867C4.24389 18.877 4.29711 18.9415 4.51114 18.9449C4.51114 18.9449 5.04226 18.9585 5.22459 18.9404ZM29.7757 16.9336H29.7637C29.2055 16.9336 28.6172 16.9336 28.6172 17.7094V18.6855C28.6172 19.4593 29.1577 19.4581 29.7059 19.4568L29.7293 19.4567H29.8448H29.8538H29.975C29.9759 19.4567 29.9768 19.4567 29.9776 19.4565C29.9781 19.4564 29.9786 19.4563 29.9791 19.4562L29.9821 19.4552L29.9841 19.4545C30.3374 19.4443 30.5503 19.3899 30.693 19.2359C30.719 19.2076 30.7224 19.1691 30.6952 19.1419L30.4155 18.8894C30.3883 18.8622 30.343 18.8418 30.3057 18.8724C30.207 18.9546 30.0627 18.9566 29.9048 18.9588L29.8561 18.9596L29.8036 18.96H29.8036H29.8036H29.8035C29.6991 18.961 29.6467 18.9614 29.5152 18.9585C29.2706 18.9528 29.1336 18.9279 29.1336 18.6844V18.4455H30.4823C30.676 18.4455 30.8334 18.2949 30.8334 18.108V17.7705C30.8368 16.9755 30.3498 16.9336 29.7757 16.9336ZM30.3181 17.8917C30.3181 17.9302 30.2864 17.9619 30.2479 17.9619H29.1359V17.7094C29.1359 17.5248 29.2072 17.484 29.3114 17.4738C29.4535 17.4603 29.5247 17.4596 29.6131 17.4588C29.65 17.4585 29.69 17.4582 29.7394 17.4568L30.0916 17.4614C30.2491 17.4682 30.3193 17.5169 30.3193 17.7739C30.3181 17.8215 30.3181 17.8611 30.3181 17.8917ZM22.4968 18.8509C22.5364 18.8215 22.5795 18.8407 22.6066 18.8679L22.8875 19.1465C22.9147 19.1737 22.9113 19.2122 22.8852 19.2405C22.7312 19.4047 22.4979 19.4557 22.097 19.4602H22.0948H22.071H22.0653H22.037H22.0348H22.0268H21.6463C21.1662 19.4602 20.8751 19.1691 20.8751 18.689V17.7162C20.8751 16.9745 21.4323 16.936 21.9034 16.936H21.943H21.9498H22.0348H22.0438H22.1186C22.1191 16.936 22.1197 16.9362 22.1203 16.9365C22.1208 16.9368 22.1214 16.9371 22.122 16.9371C22.507 16.9427 22.7335 16.9948 22.8841 17.1568C22.909 17.184 22.9135 17.2236 22.8864 17.2508L22.6066 17.5248C22.5795 17.552 22.5353 17.5713 22.4968 17.5418C22.3771 17.4523 22.2773 17.4523 22.1232 17.4523H22.1174H21.9068H21.9023L21.8818 17.4523C21.7674 17.4522 21.6106 17.452 21.5082 17.4841C21.447 17.5022 21.3927 17.5441 21.3927 17.7151V18.6879C21.3927 18.8804 21.4527 18.9404 21.6452 18.9404H22.0257H22.0291H22.0936H22.097L22.1146 18.9407C22.2619 18.9429 22.3715 18.9446 22.4968 18.8509ZM7.28394 17.9013H7.28387L7.28307 17.9013C7.22763 17.9016 7.17209 17.9019 7.11648 17.9019C6.967 17.9019 6.86848 17.8192 6.86848 17.6562C6.86848 17.4976 6.95907 17.4365 7.13913 17.4319L7.49699 17.4297C7.60344 17.4285 7.9058 17.4274 8.01565 17.518C8.05302 17.5486 8.09832 17.5282 8.1255 17.501L8.40522 17.2281C8.43239 17.2009 8.42786 17.1613 8.40182 17.1341C8.24214 16.962 7.99413 16.9144 7.56041 16.9133H7.11648C6.04065 16.9133 6.14031 18.4194 7.11648 18.4194C7.17238 18.4194 7.22591 18.4191 7.2782 18.4188C7.43038 18.418 7.57211 18.4172 7.73141 18.424C7.91939 18.4274 8.02471 18.4749 8.02471 18.6844C8.02471 18.8815 7.91939 18.9415 7.73933 18.9415H7.13574C7.02023 18.9381 6.86961 18.9222 6.78807 18.8543C6.7507 18.8237 6.7054 18.8441 6.67822 18.8713L6.39851 19.1442C6.37133 19.1714 6.37586 19.2099 6.40077 19.2382C6.54573 19.3945 6.76316 19.4477 7.12554 19.4568C7.12668 19.4568 7.12809 19.457 7.12951 19.4573L7.12954 19.4573L7.13166 19.4577L7.13347 19.4579H7.77897C8.26706 19.4579 8.55017 19.1499 8.55017 18.6822C8.5513 18.2145 8.26932 17.9189 7.7801 17.9064C7.61635 17.8996 7.45069 17.9005 7.28407 17.9013H7.284H7.28394ZM24.6954 10.4284C24.5995 10.1681 24.4625 10.031 24.209 9.94194C23.9623 9.85972 23.5992 9.85972 23.1538 9.85972C22.2288 9.85972 21.4956 9.85287 20.9886 9.68842C20.4747 9.50342 20.2006 9.22935 20.0088 8.70861C19.8649 8.24954 19.8443 7.60546 19.8375 6.8038V6.6325V6.63243C19.8375 6.13913 19.8375 5.7486 19.7553 5.48139C19.6525 5.21417 19.5429 5.09083 19.2688 4.99491C19.0016 4.91269 18.611 4.91269 18.1177 4.91269H18.1177H16.624H16.6239C16.1306 4.91269 15.7401 4.91269 15.4729 4.99491C15.2056 5.09083 15.0823 5.21417 14.9864 5.48139C14.9042 5.74861 14.9042 6.13917 14.9042 6.6325V6.66676C14.9042 7.53694 14.8904 8.22213 14.7329 8.70861C14.541 9.22935 14.2669 9.50342 13.753 9.68842C13.4173 9.7912 12.9925 9.83232 12.4717 9.84602C11.9167 9.83232 11.4508 9.79805 11.1014 9.68157C10.5875 9.49657 10.3134 9.2225 10.1216 8.70176C9.97768 8.24269 9.95712 7.61231 9.95027 6.81065V6.62565C9.95027 6.13232 9.95027 5.74176 9.86804 5.47453C9.76527 5.20731 9.65564 5.08398 9.38157 4.98806C9.11434 4.90583 8.72378 4.90583 8.23045 4.90583H6.70934C6.21601 4.90583 5.82545 4.90583 5.55823 4.98806C5.29101 5.08398 5.16768 5.20731 5.07175 5.47453C4.98953 5.74174 4.98953 6.13228 4.98953 6.62558V6.62565V6.65991C4.98953 7.53009 4.97583 8.21528 4.81823 8.70176C4.62638 9.2225 4.35231 9.49657 3.83842 9.68157C3.43416 9.81176 2.88601 9.83917 2.21453 9.84602H1.76231H1.76226C1.26895 9.84602 0.878411 9.84602 0.611198 9.92824C0.343976 10.0242 0.220644 10.1475 0.124719 10.4147C0.0424963 10.6819 0.0424913 11.0725 0.0424913 11.5658V13.0595C0.0424913 13.5529 0.0424963 13.9434 0.124719 14.2106C0.220644 14.4779 0.350828 14.6012 0.611198 14.6971C0.87842 14.7794 1.26898 14.7794 1.76231 14.7794H3.25601C3.74934 14.7794 4.1399 14.7794 4.40712 14.6971C4.66064 14.6081 4.79768 14.471 4.8936 14.2106C4.97582 13.9434 4.97582 13.5529 4.97582 13.0596V13.0595V12.8745C4.97582 12.0797 5.00323 11.4425 5.14712 10.9834C5.33897 10.4627 5.61305 10.1886 6.12694 10.0036C6.48323 9.89398 6.94231 9.85287 7.49731 9.83916C8.0112 9.85287 8.44286 9.89398 8.7786 9.99676C9.29249 10.1818 9.56656 10.4558 9.75842 10.9766C9.90916 11.4631 9.92971 12.1482 9.92971 13.0184V13.0527V13.0527C9.92971 13.546 9.92971 13.9366 10.0119 14.2038C10.1079 14.471 10.238 14.5943 10.4984 14.6903C10.7656 14.7725 11.1562 14.7725 11.6495 14.7725H13.1432C13.6366 14.7725 14.0271 14.7725 14.2943 14.6903C14.5684 14.5943 14.6849 14.471 14.7808 14.2038C14.863 13.9366 14.863 13.5461 14.863 13.0528V13.0527V12.9019C14.863 12.1003 14.8836 11.4631 15.0343 11.004C15.2262 10.4832 15.5003 10.2092 16.0142 10.0242C16.3705 9.91454 16.8295 9.87342 17.3845 9.85972C17.8984 9.87342 18.3301 9.91454 18.6658 10.0173C19.1797 10.2023 19.4538 10.4764 19.6456 10.9971C19.7964 11.4836 19.8169 12.1688 19.8169 13.039V13.0732V13.0733C19.8169 13.5666 19.8169 13.9571 19.8992 14.2243C19.9951 14.4916 20.1253 14.6149 20.3856 14.7108C20.6528 14.7931 21.0434 14.7931 21.5367 14.7931H21.5367H23.0304H23.0305C23.5238 14.7931 23.9143 14.7931 24.1816 14.7108C24.4556 14.6149 24.5721 14.4916 24.668 14.2243C24.7503 13.9571 24.7503 13.5666 24.7503 13.0732V11.5795C24.7777 11.0862 24.7777 10.6956 24.6954 10.4284ZM36.5356 9.27738C36.4396 9.53775 36.3163 9.66794 36.0491 9.76387C35.7818 9.84609 35.3981 9.84609 34.8843 9.84609H34.85C33.9798 9.84609 33.2946 9.86665 32.8082 10.0174C32.2874 10.2092 32.0133 10.4833 31.8283 10.9972C31.7256 11.3329 31.6844 11.7646 31.6707 12.2785C31.6844 12.8335 31.7256 13.2926 31.8352 13.6489C32.0202 14.1628 32.2943 14.4368 32.815 14.6287C33.2672 14.7726 33.9044 14.8 34.6924 14.8H34.8911C35.3844 14.8 35.775 14.8 36.0422 14.8822C36.3026 14.9781 36.4396 15.1152 36.5287 15.3687C36.6109 15.6359 36.6109 16.0265 36.6109 16.5198V18.0135C36.6109 18.5068 36.6109 18.8974 36.5287 19.1646C36.4328 19.425 36.3094 19.5552 36.0422 19.6511C35.775 19.7333 35.3844 19.7333 34.8911 19.7333H33.3974C32.9041 19.7333 32.5135 19.7333 32.2463 19.6511C31.9791 19.5552 31.8557 19.4318 31.7598 19.1646C31.6776 18.8974 31.6776 18.5069 31.6776 18.0136V18.0135V17.5613C31.6707 16.8898 31.6433 16.3416 31.5131 15.9374C31.3281 15.4235 31.0541 15.1494 30.5333 14.9576C30.0469 14.8 29.3617 14.7863 28.4915 14.7863H28.4572C27.9639 14.7863 27.5733 14.7863 27.3061 14.7041C27.0389 14.6081 26.9156 14.4848 26.8196 14.2176C26.7374 13.9504 26.7374 13.5598 26.7374 13.0665V13.0665V11.5728V11.5727C26.7374 11.0794 26.7374 10.6889 26.8196 10.4216C26.9156 10.1476 27.0389 10.0379 27.3061 9.93516C27.5733 9.85294 27.9639 9.85294 28.4572 9.85294H28.6559C29.4439 9.84609 30.0743 9.82553 30.5333 9.68164C31.0541 9.48979 31.3281 9.21572 31.5131 8.70183C31.6776 8.19479 31.6844 7.46164 31.6844 6.53664V6.53661C31.6844 6.09126 31.6844 5.72812 31.7667 5.48146C31.8557 5.22794 31.9928 5.0909 32.2532 4.99498C32.5204 4.91276 32.9109 4.91276 33.4042 4.91276H33.4043H34.898H34.898C35.3913 4.91276 35.7819 4.91276 36.0491 4.99498C36.3163 5.0909 36.4396 5.20739 36.5356 5.48146C36.6178 5.74867 36.6178 6.1392 36.6178 6.6325V6.63257V8.12627V8.12634C36.6178 8.61964 36.6178 9.01017 36.5356 9.27738Z" fill="#FFC5B6"/>
</svg>
